<?xml version="1.0" encoding="UTF-8" standalone="no"?>
<!DOCTYPE svg PUBLIC "-//W3C//DTD SVG 1.1//EN"
 "http://www.w3.org/Graphics/SVG/1.1/DTD/svg11.dtd">
<!-- Generated by graphviz version 2.50.0 (20211204.2007)
 -->
<!-- Title: Mir_0_6 Pages: 1 -->
<svg width="470pt" height="379pt"
 viewBox="0.00 0.00 470.00 379.00" xmlns="http://www.w3.org/2000/svg" xmlns:xlink="http://www.w3.org/1999/xlink">
<g id="graph0" class="graph" transform="scale(1 1) rotate(0) translate(4 375)">
<title>Mir_0_6</title>
<polygon fill="white" stroke="transparent" points="-4,4 -4,-375 466,-375 466,4 -4,4"/>
<text text-anchor="start" x="8" y="-82.8" font-family="Courier, monospace" font-size="14.00">fn main() &#45;&gt; ()</text>
<text text-anchor="start" x="8" y="-67.8" font-family="Courier, monospace" font-size="14.00">let _1: std::boxed::Box&lt;&amp;str&gt;;</text>
<text text-anchor="start" x="8" y="-52.8" font-family="Courier, monospace" font-size="14.00">let _2: std::mem::ManuallyDrop&lt;std::boxed::Box&lt;&amp;str&gt;&gt;;</text>
<text text-anchor="start" x="8" y="-37.8" font-family="Courier, monospace" font-size="14.00">let mut _3: std::boxed::Box&lt;&amp;str&gt;;</text>
<text text-anchor="start" x="8" y="-22.8" font-family="Courier, monospace" font-size="14.00">debug b =&gt; _1;</text>
<text text-anchor="start" x="8" y="-7.8" font-family="Courier, monospace" font-size="14.00">debug b1 =&gt; _2;</text>
<!-- bb0__0_6 -->
<g id="node1" class="node">
<title>bb0__0_6</title>
<polygon fill="gray" stroke="transparent" points="79,-346 79,-367 383,-367 383,-346 79,-346"/>
<polygon fill="none" stroke="black" points="79,-346 79,-367 383,-367 383,-346 79,-346"/>
<text text-anchor="start" x="226.5" y="-352.8" font-family="Courier, monospace" font-size="14.00">0</text>
<polygon fill="none" stroke="black" points="79,-325 79,-346 383,-346 383,-325 79,-325"/>
<text text-anchor="start" x="82" y="-331.8" font-family="Courier, monospace" font-size="14.00">_1 = Box::&lt;&amp;str&gt;::new(const &quot;boxed&quot;)</text>
</g>
<!-- bb1__0_6 -->
<g id="node2" class="node">
<title>bb1__0_6</title>
<polygon fill="gray" stroke="transparent" points="46,-244.5 46,-265.5 416,-265.5 416,-244.5 46,-244.5"/>
<polygon fill="none" stroke="black" points="46,-244.5 46,-265.5 416,-265.5 416,-244.5 46,-244.5"/>
<text text-anchor="start" x="226.5" y="-251.3" font-family="Courier, monospace" font-size="14.00">1</text>
<polygon fill="none" stroke="black" points="46,-223.5 46,-244.5 416,-244.5 416,-223.5 46,-223.5"/>
<text text-anchor="start" x="49" y="-230.3" font-family="Courier, monospace" font-size="14.00">_3 = move _1</text>
<polygon fill="none" stroke="black" points="46,-202.5 46,-223.5 416,-223.5 416,-202.5 46,-202.5"/>
<text text-anchor="start" x="49" y="-209.3" font-family="Courier, monospace" font-size="14.00">_2 = ManuallyDrop::&lt;Box&lt;&amp;str&gt;&gt;::new(move _3)</text>
</g>
<!-- bb0__0_6&#45;&gt;bb1__0_6 -->
<g id="edge1" class="edge">
<title>bb0__0_6&#45;&gt;bb1__0_6</title>
<path fill="none" stroke="black" d="M231,-320.97C231,-309.13 231,-294.46 231,-280.63"/>
<polygon fill="black" stroke="black" points="234.5,-280.28 231,-270.28 227.5,-280.28 234.5,-280.28"/>
<text text-anchor="middle" x="256" y="-291.8" font-family="Courier, monospace" font-size="14.00">return</text>
</g>
<!-- bb2__0_6 -->
<g id="node3" class="node">
<title>bb2__0_6</title>
<polygon fill="gray" stroke="transparent" points="203,-123 203,-144 259,-144 259,-123 203,-123"/>
<polygon fill="none" stroke="black" points="203,-123 203,-144 259,-144 259,-123 203,-123"/>
<text text-anchor="start" x="226.5" y="-129.8" font-family="Courier, monospace" font-size="14.00">2</text>
<polygon fill="none" stroke="black" points="203,-102 203,-123 259,-123 259,-102 203,-102"/>
<text text-anchor="start" x="206" y="-108.8" font-family="Courier, monospace" font-size="14.00">return</text>
</g>
<!-- bb1__0_6&#45;&gt;bb2__0_6 -->
<g id="edge2" class="edge">
<title>bb1__0_6&#45;&gt;bb2__0_6</title>
<path fill="none" stroke="black" d="M231,-198.85C231,-185.93 231,-171.27 231,-158.37"/>
<polygon fill="black" stroke="black" points="234.5,-158.03 231,-148.03 227.5,-158.03 234.5,-158.03"/>
<text text-anchor="middle" x="256" y="-169.8" font-family="Courier, monospace" font-size="14.00">return</text>
</g>
</g>
</svg>
